<svg version="1.1" xmlns="http://www.w3.org/2000/svg" style="display: block;" viewBox="0 0 1600 1600" width="400" height="400">
<path transform="translate(0,0)" fill="rgb(45,166,223)" d="M 0 0 L 1600 0 L 1600 640.175 L 1600 674.59 L 1600 1600 L 0 1600 L 0 673.768 L 0 621.44 L 0 0 z"/>
<path transform="translate(0,0)" fill="rgb(254,254,254)" d="M 0 673.768 C 0.0955496 674.099 0.195261 674.429 0.286649 674.761 C 2.62938 683.283 3.29235 692.324 4.71148 701.041 C 6.46057 711.15 8.73995 721.161 11.5402 731.031 C 26.9141 785.902 69.3563 827.036 117.657 854.977 C 135.235 865.146 158.742 876.803 179.137 878.801 C 139.731 945.574 82.9323 1068.27 103.275 1148 C 110.548 1176.51 128.206 1193.99 153.005 1208.46 C 283.417 1284.54 522.62 1277.85 665.826 1240.02 C 700.022 1230.99 761.865 1211.58 790.333 1191.1 C 800.323 1183.92 808.734 1174.79 817.163 1165.9 C 825.36 1157.25 832.338 1147.33 844.901 1154.56 C 858.449 1162.36 870.473 1173.99 882.372 1184.04 C 897.159 1196.53 912.601 1207.59 929.852 1216.42 C 1031.47 1268.44 1219.96 1271.63 1328.92 1243.07 C 1382.03 1229.15 1436.07 1203.87 1464.88 1154.71 C 1503.95 1088 1500.11 988.58 1480.82 916.321 C 1475.23 895.368 1468.25 874.43 1456.11 856.291 C 1514.6 824.239 1572.6 775.189 1592.45 708.909 C 1595.68 698.095 1596.17 684.651 1600 674.59 L 1600 1600 L 0 1600 L 0 673.768 z"/>
<path transform="translate(0,0)" fill="rgb(254,254,254)" d="M 0 0 L 1600 0 L 1600 640.175 C 1595.43 625.443 1593.04 603.212 1589.42 587.161 C 1579.28 542.23 1564.63 497.792 1543.42 456.812 C 1505.1 382.783 1446.99 322.797 1370.45 288.43 C 1348.44 278.547 1325.71 271.639 1302.75 264.368 C 1295.97 255.991 1289.88 246.974 1283.21 238.482 C 1266.64 217.365 1248.06 197.92 1226.62 181.682 C 1201.17 162.397 1170.26 147.579 1137.57 152.326 C 1106.64 156.817 1083.4 177.712 1065.32 201.895 C 1038.69 184.375 1012.1 167.498 982.303 155.801 C 959.201 146.733 928.97 137.915 905.092 148.575 C 882.987 158.443 862.078 183.743 853.888 206.244 C 838.599 248.247 857.419 295.897 875.212 334.118 C 872.556 335.384 870.014 336.821 867.477 338.309 C 826.512 362.344 799.826 404.886 786.461 449.667 C 782.954 461.419 781.257 473.449 778.157 485.269 C 770.157 448.147 751.042 413.739 726.663 384.851 C 720.316 377.33 710.047 370.191 705.338 361.755 C 698.646 349.766 695.652 333.065 691.155 319.979 C 677.681 280.769 657.103 232.159 625.735 203.775 C 612.776 192.048 597.507 185.04 579.813 185.964 C 531.587 188.48 503.798 227.27 474.42 259.406 C 463.268 263.634 449.883 264.784 438.14 266.777 L 381.343 276.535 C 359.689 246.071 330.973 202.881 293.435 191.664 C 274.538 186.017 255.234 191.933 238.489 201.123 C 202.297 220.984 178.23 264.783 166.005 303.037 C 162.414 314.271 160.618 328.852 154.686 338.965 C 148.522 349.471 136.159 358.471 127.673 367.401 C 115.994 379.86 104.797 392.762 94.1063 406.078 C 56.1444 453.972 25.5635 509.517 10.1054 568.864 C 5.71195 585.732 5.2609 604.147 0.279202 620.566 C 0.190407 620.859 0.0930673 621.149 0 621.44 L 0 0 z"/>
<path transform="translate(0,0)" fill="rgb(254,254,254)" d="M 580.139 265.996 C 582.761 266.305 585.203 267.557 587.366 269.04 C 612.289 286.135 614.248 347.21 619.235 375.222 C 656.346 398.493 678.433 415.769 697.907 456.908 C 767.066 603.003 773.618 864.115 759.943 1023.25 C 757.613 1050.37 755.391 1096.41 746.387 1120.96 C 739.308 1140.26 719.785 1153.46 701.895 1161.74 C 610.295 1204.12 432.74 1192.73 331.775 1182.19 C 303.601 1179.25 271.747 1178.53 245.119 1168.64 C 224.661 1161.04 210.714 1148.85 201.63 1129.05 C 200.138 1124.68 198.898 1120.38 198.132 1115.82 C 184.089 1032.12 265.102 914.737 311.351 850.311 C 296.999 851.578 281.567 850.937 267.476 848.103 C 223.536 839.267 158.5 811.893 124.191 782.326 C 115.387 774.739 108.189 766.095 101.749 756.434 C 66.8313 704.059 62.9187 637.234 75.1229 577.016 C 87.5472 515.712 120.968 440.588 175.033 405.079 C 247.298 357.617 372.529 337.463 457.762 339.638 C 474.037 340.053 491.471 340.301 507.44 343.526 C 521.24 314.986 549.556 277.207 580.139 265.996 z"/>
<path transform="translate(0,0)" fill="rgb(45,166,223)" d="M 345.91 922.207 C 359.167 920.799 369.517 922.096 381.3 928.577 C 404.67 941.431 406.199 961.232 412.934 984.359 C 417.653 1000.56 426.898 1016.38 436.209 1030.4 C 473.732 1086.9 525.863 1082.08 585.772 1083.11 C 608.378 1083.49 632.075 1085.29 652.193 1096.59 C 661.082 1101.58 669.939 1109.36 672.54 1119.63 C 674.127 1125.89 672.748 1131.94 669.392 1137.36 C 656.643 1157.96 624.24 1164.66 602.209 1169.77 C 523.832 1185.75 430.694 1181.85 360.703 1139.43 C 324.821 1117.68 297.396 1084.83 287.509 1043.46 C 280.579 1014.46 281.307 981.435 297.582 955.535 C 308.826 937.641 325.419 926.756 345.91 922.207 z"/>
<path transform="translate(0,0)" fill="rgb(254,254,254)" d="M 354.195 950.24 C 359.161 950.399 363.839 951.776 368.05 954.423 C 381.035 962.587 380.983 977.836 384.494 991.162 C 389.696 1010.9 401.763 1030.89 413.012 1047.77 C 453.536 1108.57 508.539 1111.08 574.488 1112.06 C 599.116 1112.42 620.964 1112.14 642.889 1125.04 C 628.061 1133.17 613.05 1137.51 596.743 1141.36 C 596.159 1141.48 595.574 1141.6 594.989 1141.72 C 522.581 1156.19 432.352 1152.89 369.204 1110.41 C 341.238 1091.6 320.696 1064.48 314.435 1030.93 C 310.692 1010.88 311.017 986.807 323.172 969.498 C 330.811 958.621 341.28 952.611 354.195 950.24 z"/>
<path transform="translate(0,0)" fill="rgb(45,166,223)" d="M 251.622 523.661 C 256.06 523.815 258.067 524.761 261.044 528.072 C 274.076 542.563 275.34 579.413 274.853 598.778 C 274.335 619.375 272.55 647.763 256.865 662.725 L 253.536 662.935 C 251.414 661.899 249.56 660.81 247.913 659.086 C 234.398 644.943 233.346 605.46 233.831 586.068 C 234.321 566.444 236.688 537.844 251.622 523.661 z"/>
<path transform="translate(0,0)" fill="rgb(45,166,223)" d="M 349.467 523.751 C 353.553 523.758 355.554 524.799 358.396 527.773 C 371.662 541.659 373.22 578.018 372.781 597.094 C 372.301 617.974 370.719 647.719 354.888 662.8 C 354.319 662.843 353.749 662.887 353.178 662.892 C 350.037 662.92 348.046 661.528 345.891 659.344 C 332.31 645.582 331.36 605.112 331.933 585.933 C 332.525 566.155 334.359 537.975 349.467 523.751 z"/>
<path transform="translate(0,0)" fill="rgb(45,166,223)" d="M 539.961 659.42 C 545.076 658.847 556.547 657.457 560.69 660.34 C 561.95 661.217 561.568 662.774 561.681 664.171 C 559.277 668.616 546.877 667.306 541.671 667.516 C 506.845 668.917 475.425 678.814 444.444 694.447 C 439.662 697.186 434.779 700.295 429.028 699.359 L 428.069 697.752 C 428.376 695.971 428.652 694.509 429.85 693.091 C 433.864 688.342 442.318 685.423 447.92 682.922 C 477.854 669.56 507.267 661.798 539.961 659.42 z"/>
<path transform="translate(0,0)" fill="rgb(45,166,223)" d="M 484.556 718.426 C 502.66 717.821 520.36 721.288 538.009 724.842 L 535.33 733.224 C 518.689 728.648 502.872 726.917 485.674 726.851 C 475.801 726.869 465.943 727.617 456.181 729.091 C 448.088 730.286 439.439 732.572 431.258 732.373 C 429.538 730.314 429.308 729.047 429.064 726.404 C 433.805 721.627 475.832 719.011 484.556 718.426 z"/>
<path transform="translate(0,0)" fill="rgb(45,166,223)" d="M 135.404 633.494 C 135.659 633.51 135.914 633.52 136.168 633.54 C 155.846 635.116 210.516 660.79 222.442 675.564 C 224.136 677.663 223.652 678.587 223.428 681.057 C 222.2 681.603 220.348 682.434 219.009 682.425 C 215.324 682.401 205.425 672.883 201.896 670.561 C 181.75 657.304 159.987 649.081 137.231 641.548 C 135.389 639.245 135.67 636.389 135.404 633.494 z"/>
<path transform="translate(0,0)" fill="rgb(45,166,223)" d="M 136.08 692.869 C 152.515 694.003 212.593 705.094 222.482 715.904 C 224.105 717.677 223.266 719.751 223.028 721.945 C 218.088 722.533 213.72 720.379 209.126 718.786 C 192.336 712.961 174.721 706.102 157.169 703.095 C 150.557 701.962 143.522 702.098 136.808 701.462 C 135.365 698.82 135.905 695.772 136.08 692.869 z"/>
<path transform="translate(0,0)" fill="rgb(254,254,254)" d="M 950.067 213.285 C 955.927 212.896 961.985 213.633 967.661 215.1 C 1017.69 228.033 1055.17 288.745 1079.86 330.188 C 1099.63 327.181 1120.52 326.945 1140.49 326.823 C 1218.27 326.347 1329.48 337.631 1395.58 382.762 C 1456.72 424.515 1502.77 526.058 1515.8 596.95 C 1524.34 643.395 1523.84 698.588 1495.87 738.673 C 1469.41 776.606 1400.68 812.937 1355.57 820.889 C 1380.18 882.45 1404.58 945.507 1413.34 1011.61 C 1418.66 1051.77 1420.93 1105.04 1394.81 1138.69 C 1388.63 1146.66 1380.64 1153.77 1371.62 1158.35 C 1343.76 1172.49 1275.25 1181.3 1242.76 1185.26 C 1171.79 1192.6 1099.37 1195.67 1028.72 1183.4 C 988.893 1176.49 943.108 1163.99 918.718 1129.31 C 922.887 1130.04 927.098 1130.81 931.313 1131.2 C 956.706 1133.58 981.882 1124.48 1001.25 1108.23 C 1017.88 1094.29 1034.56 1072.34 1036.32 1049.98 C 1037.69 1032.5 1030.37 1015.66 1019.02 1002.67 C 999.747 980.596 968.535 968.479 939.764 966.737 C 952.274 917.835 967.263 873.458 990.632 828.6 C 965.727 826.643 938.281 816.74 915.488 806.832 C 882.826 792.633 845.095 770.728 831.679 735.953 C 812.468 686.154 825.719 580.685 837.546 528.953 C 843.652 501.387 852.345 474.459 863.51 448.526 C 885.084 399.725 908.73 374.074 959.369 354.536 C 946.507 324.539 927.152 297.193 921.9 264.329 C 919.877 251.67 919.051 235.918 927.314 225.165 C 933.015 217.745 941.126 214.599 950.067 213.285 z"/>
<path transform="translate(0,0)" fill="rgb(45,166,223)" d="M 1360.1 524.602 C 1360.35 524.602 1360.59 524.598 1360.84 524.603 C 1364.6 524.682 1366.45 525.808 1368.98 528.556 C 1383.46 544.257 1383.98 587.375 1382.69 608.5 C 1381.56 626.935 1378.88 651.397 1364.29 664.333 C 1360.82 664.08 1358.78 662.55 1356.42 660.045 C 1342.04 644.79 1340.97 602.733 1342.1 582.158 C 1343.12 563.721 1345.72 537.452 1360.1 524.602 z"/>
<path transform="translate(0,0)" fill="rgb(45,166,223)" d="M 1262.26 524.538 C 1265.98 524.635 1268.05 525.583 1270.68 528.284 C 1283.64 541.58 1285.37 577.173 1285.26 595.51 C 1285.11 618.142 1283.18 647.837 1266.34 664.457 C 1262.83 663.917 1260.23 662.153 1257.91 659.48 C 1242.95 642.239 1242.9 596.775 1244.96 574.235 C 1246.43 558.014 1249.03 535.564 1262.26 524.538 z"/>
<path transform="translate(0,0)" fill="rgb(254,254,254)" d="M 922.726 995.39 C 936.314 994.414 950.754 996.47 963.638 1000.84 C 979.328 1006.17 996.845 1016.88 1004.28 1032.33 C 1007.84 1039.75 1008.31 1047.58 1005.56 1055.35 C 998.831 1074.33 980.181 1089.9 962.458 1098.12 C 957.381 1100.01 952.335 1101.45 946.939 1102.11 C 929.517 1104.23 910.894 1098.81 897.214 1087.83 C 885.173 1078.17 879.679 1065.16 878.136 1050.01 C 876.763 1036.55 878.572 1021.45 887.474 1010.69 C 896.693 999.546 908.968 996.694 922.726 995.39 z"/>
<path transform="translate(0,0)" fill="rgb(254,254,254)" d="M 1141.2 210.238 C 1148.52 209.514 1155.9 210.424 1162.82 212.901 C 1198.29 225.289 1222.45 271.411 1237.62 303.465 C 1232.22 302.417 1226.67 301.989 1221.19 301.414 C 1192.1 296.805 1160.98 297.677 1131.54 297.967 C 1129.85 291.143 1128.39 284.262 1127.17 277.337 C 1124.24 261.073 1117.99 228.473 1127.95 214.526 C 1130.21 211.358 1137.57 210.862 1141.2 210.238 z"/>
<path transform="translate(0,0)" fill="rgb(254,254,254)" d="M 271.167 267.996 C 273.288 267.942 275.558 267.833 277.635 268.328 C 296.407 272.799 314.768 305.172 323.948 321.231 C 305.906 324.48 287.938 329.328 270.2 333.933 C 256.776 338.131 243.377 342.288 230.213 347.259 C 237.804 320.293 246.388 284.202 271.167 267.996 z"/>
</svg>